<svg id="Layer_1" data-name="Layer 1" xmlns="http://www.w3.org/2000/svg" viewBox="0 0 293 455.79"><defs><style>.cls-1{fill:#f9f3d9;}.cls-2{fill:#222f4c;}.cls-3{fill:#fafdfe;}.cls-4{fill:#3f8d65;}.cls-5{fill:#b2a67a;}.cls-6{fill:#6d6f3b;}.cls-7{fill:#fff;}.cls-8{fill:#305b32;}</style></defs><title>blocksite</title><rect class="cls-1" width="293" height="9.83" rx="4.92"/><rect class="cls-2" x="248.5" y="2.59" width="13.77" height="4.65" rx="2.32"/><rect class="cls-3" y="9.83" width="293" height="66.72" rx="12"/><rect class="cls-3" y="225.66" width="293" height="80.32" rx="12"/><rect class="cls-3" y="418.27" width="293" height="37.52" rx="10"/><rect class="cls-4" x="123.61" y="59.92" width="20.2" height="6.26" rx="3.13"/><rect class="cls-2" x="145.78" y="59.83" width="23.6" height="6.44" rx="3.22"/><rect class="cls-2" y="76.55" width="293" height="149.11" rx="12"/><rect class="cls-2" y="305.98" width="293" height="112.29" rx="12"/><rect class="cls-5" x="49.5" y="116.27" width="45.42" height="45.42" rx="13"/><rect class="cls-6" x="99.2" y="116.27" width="45.42" height="45.42" rx="13"/><rect class="cls-7" x="148.37" y="116.27" width="45.42" height="45.42" rx="13"/><rect class="cls-8" x="198.08" y="116.27" width="45.42" height="45.42" rx="13"/><rect class="cls-5" x="49.5" y="168.56" width="45.42" height="45.42" rx="13"/><rect class="cls-6" x="99.2" y="168.56" width="45.42" height="45.42" rx="13"/></svg>